<?xml version="1.0" encoding="utf-8"?>
<!-- Generator: Adobe Illustrator 16.0.0, SVG Export Plug-In . SVG Version: 6.00 Build 0)  -->
<!DOCTYPE svg PUBLIC "-//W3C//DTD SVG 1.1//EN" "http://www.w3.org/Graphics/SVG/1.1/DTD/svg11.dtd">
<svg version="1.1" id="Layer_1" xmlns="http://www.w3.org/2000/svg" xmlns:xlink="http://www.w3.org/1999/xlink" x="0px" y="0px"
	 width="200px" height="180px" viewBox="0 0 200 180" enable-background="new 0 0 200 180" xml:space="preserve">
<g opacity="0.8">
	<g>
		<path d="M159.917,61.833c-11.277-22.579-34.609-38.13-61.517-38.13s-50.239,15.552-61.517,38.13H159.917z"/>
		<path d="M36.825,118.917c11.255,22.642,34.622,38.245,61.576,38.245s50.32-15.604,61.576-38.245H36.825z"/>
	</g>
	<g>
		<path d="M26.303,61.833h8.151C45.897,38.017,70.259,21.535,98.4,21.535c28.141,0,52.503,16.482,63.945,40.299h13.727
			c-2.242-1.639-2.819-4.545-1.148-7.424c2.21-3.809,0.415-6.918-3.987-6.91c-4.404,0.011-6.887-3.408-5.518-7.592
			c1.37-4.185-1.032-6.853-5.338-5.928c-4.305,0.926-7.444-1.899-6.975-6.279c0.47-4.378-2.434-6.489-6.454-4.689
			c-4.019,1.8-7.676-0.311-8.126-4.693c-0.452-4.38-3.731-5.839-7.288-3.244c-3.558,2.595-7.574,1.291-8.926-2.9
			c-1.353-4.191-4.863-4.937-7.803-1.658c-2.94,3.278-7.141,2.838-9.333-0.981c-2.194-3.819-5.784-3.819-7.977,0
			c-2.194,3.819-6.394,4.259-9.333,0.981c-2.941-3.279-6.452-2.533-7.804,1.658c-1.352,4.191-5.368,5.496-8.926,2.9
			c-3.557-2.596-6.836-1.136-7.287,3.244c-0.452,4.382-4.108,6.493-8.128,4.693c-4.019-1.8-6.923,0.311-6.453,4.689
			c0.469,4.38-2.668,7.205-6.975,6.279c-4.305-0.924-6.707,1.743-5.337,5.928c1.37,4.185-1.113,7.603-5.516,7.592
			c-4.404-0.008-6.199,3.101-3.989,6.91C29.122,57.289,28.545,60.194,26.303,61.833z"/>
		<path d="M176.072,118.917h-13.673c-11.42,23.878-35.813,40.414-63.999,40.414c-28.186,0-52.578-16.536-63.999-40.414h-8.099
			c2.242,1.639,2.819,4.545,1.148,7.424c-2.21,3.809-0.415,6.918,3.989,6.909c4.403-0.009,6.886,3.408,5.516,7.593
			s1.032,6.853,5.337,5.928c4.307-0.925,7.444,1.9,6.975,6.279c-0.47,4.379,2.435,6.489,6.453,4.689
			c4.02-1.8,7.676,0.312,8.128,4.693c0.45,4.38,3.729,5.839,7.287,3.243c3.558-2.596,7.574-1.291,8.926,2.9
			c1.352,4.191,4.863,4.937,7.804,1.658c2.939-3.278,7.139-2.838,9.333,0.98c2.193,3.82,5.783,3.82,7.977,0
			c2.192-3.818,6.393-4.259,9.333-0.98c2.939,3.278,6.45,2.533,7.803-1.658c1.352-4.191,5.368-5.496,8.926-2.9
			c3.557,2.596,6.836,1.137,7.288-3.243c0.45-4.382,4.107-6.493,8.126-4.693c4.021,1.8,6.924-0.311,6.454-4.689
			s2.67-7.204,6.975-6.279c4.306,0.925,6.708-1.743,5.338-5.928c-1.369-4.185,1.113-7.602,5.518-7.593
			c4.402,0.009,6.197-3.101,3.987-6.909C173.253,123.462,173.83,120.556,176.072,118.917z"/>
	</g>
</g>
<g>
	<text transform="matrix(1 0 0 1 87.4648 131.877)" fill="#FFFFFF" font-family="'OpenSans'" font-size="12">2014</text>
</g>
<polygon opacity="0.8" points="193.5,63.535 100,63.535 6.5,63.535 28.092,90.375 6.5,117.215 100,117.215 193.5,117.215 
	171.908,90.375 "/>
<g>
	<path fill="#FFFFFF" d="M64.004,86.43c0,2.767-0.537,4.646-1.609,5.641c-1.072,0.996-3.263,1.493-6.57,1.493h-4.885v11.204h-2.851
		V75.982h7.735c3.308,0,5.498,0.502,6.57,1.503s1.609,2.884,1.609,5.65V86.43z M55.397,78.676h-4.458v12.232h4.458
		c2.339,0,3.841-0.258,4.506-0.775c0.666-0.518,0.999-1.484,0.999-2.908v-4.922c0-1.408-0.317-2.365-0.95-2.871
		C59.318,78.93,57.801,78.676,55.397,78.676z"/>
	<path fill="#FFFFFF" d="M108.653,104.768V75.982h2.85v12.387h1.473l9.207-12.387h3.18l-10.157,13.666l11.475,15.119h-3.586
		l-10.351-13.666h-1.24v13.666H108.653z"/>
	<path fill="#FFFFFF" d="M139.416,101.996v2.771h-12.87V75.982h12.87v2.791h-10.021v9.633h9.322v2.792h-9.322v10.798H139.416z"/>
	<path fill="#FFFFFF" d="M145.272,104.768V78.813h-6.165v-2.791h15.178v2.791h-6.164v25.955H145.272z"/>
	<path fill="#FFFFFF" d="M87.379,77.921c-1.176-1.524-3.075-2.287-5.699-2.287h-9.31c-2.636,0-4.538,0.763-5.709,2.287
		c-1.169,1.524-1.754,4.019-1.754,7.481v10.002c0,3.451,0.585,5.932,1.754,7.443c1.171,1.512,3.073,2.269,5.709,2.269h9.31
		c2.624,0,4.523-0.757,5.699-2.269c1.175-1.512,1.764-3.992,1.764-7.443V85.402C89.143,81.939,88.554,79.445,87.379,77.921z
		 M72.72,78.482h8.592c1.822,0,3.072,0.463,3.751,1.387c0.333,0.455,0.585,1.135,0.755,2.035l-8.792,5.342l-8.8-5.403
		c0.17-0.87,0.417-1.529,0.743-1.974C69.646,78.945,70.896,78.482,72.72,78.482z M85.063,100.919
		c-0.679,0.925-1.929,1.386-3.751,1.386H72.72c-1.823,0-3.073-0.461-3.751-1.386c-0.68-0.925-1.018-2.763-1.018-5.515V84.537
		l9.074,5.678l9.055-5.603v10.792C86.08,98.156,85.74,99.994,85.063,100.919z"/>
	<g>
		<path fill="#FFFFFF" d="M106.51,95.055c0.012,0.189,0.021,0.4,0.028,0.637c0.007,0.234,0.01,0.572,0.01,1.015
			c0,2.786-0.538,4.845-1.615,6.174c-1.076,1.329-2.741,1.994-4.995,1.994h-2.717c-1.203,0-2.273-0.211-3.209-0.635
			c-0.938-0.425-1.66-1.028-2.166-1.815c-0.432-0.671-0.738-1.449-0.922-2.337c-0.184-0.886-0.275-2.247-0.275-4.083v-0.969v-9.48
			c0-3.393,0.573-5.836,1.719-7.33c1.146-1.496,3.011-2.242,5.595-2.242h1.463c2.558,0,4.39,0.631,5.499,1.891
			c1.107,1.26,1.662,3.34,1.662,6.239c0,0.356-0.003,0.624-0.01,0.808c-0.006,0.184-0.017,0.352-0.028,0.504h-3.002v-0.342
			c0-2.443-0.304-4.105-0.911-4.987c-0.607-0.879-1.703-1.321-3.287-1.321h-1.52c-1.607,0-2.716,0.457-3.323,1.369
			c-0.608,0.912-0.912,2.717-0.912,5.412v9.48c0,3.166,0.275,5.138,0.826,5.916c0.552,0.779,1.688,1.17,3.409,1.17h1.52
			c1.697,0,2.822-0.377,3.372-1.131c0.552-0.753,0.826-2.504,0.826-5.252v-0.703L106.51,95.055z"/>
	</g>
</g>
<text transform="matrix(1 0 0 1 52.9019 56.5166)" fill="#FFFFFF" font-family="'OpenSans'" font-size="12">BUSINESS CONS.</text>
</svg>
