<?xml version="1.0" encoding="utf-8"?>
<!-- Generator: Adobe Illustrator 17.0.0, SVG Export Plug-In . SVG Version: 6.00 Build 0)  -->
<!DOCTYPE svg PUBLIC "-//W3C//DTD SVG 1.1//EN" "http://www.w3.org/Graphics/SVG/1.1/DTD/svg11.dtd">
<svg version="1.1" id="Layer_1" xmlns="http://www.w3.org/2000/svg" xmlns:xlink="http://www.w3.org/1999/xlink" x="0px" y="0px"
	 width="320px" height="480px" viewBox="0 0 320 480" enable-background="new 0 0 320 480" xml:space="preserve">
<g>
	<g>
		<g>
			<defs>
				<rect id="SVGID_1_" x="110.121" y="414.327" width="99.831" height="65.673"/>
			</defs>
			<clipPath id="SVGID_2_">
				<use xlink:href="#SVGID_1_"  overflow="visible"/>
			</clipPath>
			<rect x="114.865" y="414.122" opacity="0.5" clip-path="url(#SVGID_2_)" fill="#00A094" width="91.41" height="65.784"/>
			<path clip-path="url(#SVGID_2_)" fill="#00A094" d="M139.488,408.193v47.934h42.041v-48.5L139.488,408.193z"/>
			<path clip-path="url(#SVGID_2_)" fill="#00A094" d="M183.215,408.288v48.972h-44.902v-48.311l-6.712-0.755v55.86h58.326v-56.426
				L183.215,408.288z"/>
			<path clip-path="url(#SVGID_2_)" fill="#00A094" d="M191.424,408.288v56.898h-61.453v-56.237l-6.712-0.755v63.786h74.877v-64.352
				L191.424,408.288z"/>
			<path clip-path="url(#SVGID_2_)" fill="#00A094" d="M199.444,408.288v64.824h-77.867v-64.164l-6.712-0.755v71.712h91.292v-72.278
				L199.444,408.288z"/>
		</g>
		<g>
			<g>
				<path fill="#FFFFFF" d="M168.976,432.053c0,0.358-0.296,0.654-0.654,0.654h-14.389c-0.358,0-0.654-0.296-0.654-0.654v-1.308
					c0-0.358,0.296-0.654,0.654-0.654h14.389c0.358,0,0.654,0.296,0.654,0.654V432.053z M168.976,437.286
					c0,0.358-0.296,0.654-0.654,0.654h-14.389c-0.358,0-0.654-0.296-0.654-0.654v-1.308c0-0.358,0.296-0.654,0.654-0.654h14.389
					c0.358,0,0.654,0.296,0.654,0.654V437.286z M168.976,442.518c0,0.358-0.296,0.654-0.654,0.654h-14.389
					c-0.358,0-0.654-0.296-0.654-0.654v-1.308c0-0.358,0.296-0.654,0.654-0.654h14.389c0.358,0,0.654,0.296,0.654,0.654V442.518z"/>
			</g>
		</g>
	</g>
	<g>
		<rect y="378.56" fill="#38634E" width="319.96" height="36.832"/>
	</g>
	<g>
		<rect y="-0.41" fill="#00A094" width="320" height="415.441"/>
	</g>
</g>
<g display="none">
	<path display="inline" fill="#00A094" d="M170.407,325.374c0,0.157-0.126,0.285-0.286,0.285H152.74
		c-0.157,0-0.286-0.127-0.286-0.285v-1.734c0-0.157,0.128-0.283,0.286-0.283h17.382c0.159,0,0.286,0.126,0.286,0.283V325.374z"/>
	<path display="inline" fill="#00A094" d="M170.407,332.166c0,0.159-0.126,0.288-0.286,0.288H152.74
		c-0.157,0-0.286-0.128-0.286-0.288v-1.73c0-0.157,0.128-0.286,0.286-0.286h17.382c0.159,0,0.286,0.128,0.286,0.286V332.166z"/>
	<path display="inline" fill="#00A094" d="M170.407,338.963c0,0.158-0.126,0.286-0.286,0.286H152.74
		c-0.157,0-0.286-0.127-0.286-0.286v-1.733c0-0.158,0.128-0.286,0.286-0.286h17.382c0.159,0,0.286,0.127,0.286,0.286V338.963z"/>
</g>
</svg>
